<svg fill="white" id="Layer_4" height="512" viewBox="0 0 250 250" width="512" xmlns="http://www.w3.org/2000/svg"
    data-name="Layer 4">
    <path
        d="m197 68.53c-37.82.75-76 4-114.2 1.09-30.81-2.37-38 6.22-37.08-16.36-2.3-14.34 31.18-7.75 38.14-9.66 37.3-.61 68.79-1.37 108 1.16 7.83.07 12.86 1.16 11.69 11.15.04 6.44.38 11.8-6.55 12.62zm0-.6c7.84-.38 6.15-12.57 4.26-18.55-4-4.15-8.1-1-15.83-1.32-126.35 6-138.13-8.25-137.2 7.17.18 5.93-2 10.33 4.36 12 15.88.34 31.62-.5 47.18-1.16 32.66-2.02 64.84 1.67 97.23 1.86z" />
    <path d="m173.5 135.15c-6.34.26-13 2.94-20 0 3.93-3.07 14.81-1.15 20 0z" />
    <path
        d="m143.5 135.3c-109.77 5.7-97.24 2.81-97.66-13.85-1.9-15.66 24.61-7.38 33.31-9.8 39.41-1.72 76.35-2.51 116.71-1.19 8.27-.48 10.27 7.22 9 14.48.26 9.93-3.83 12.22-13.22 11-2.11-.61-7.46.45-8.19-1.2 17.15-1.76 19.33 2.59 17-17-1.9-4.66-16.41-.91-21.42-1.73-79.82 2.52-131.89-7.74-130.95 2.1-1.67 21.23 5.41 13.67 20.41 14.38 24.99.1 52.32-.85 75.01 2.81z" />
    <path
        d="m197 202.3c-37.82.75-76 4-114.2 1.1-30.8-2.4-37.98 6.22-37.08-16.4-2.3-14.34 31.18-7.75 38.14-9.66 37.3-.61 68.79-1.37 108 1.17 7.83.07 12.86 1.16 11.69 11.15.04 6.47.38 11.82-6.55 12.64zm0-.6c7.84-.38 6.15-12.56 4.26-18.54-4-4.16-8.1-1-15.83-1.33-126.35 6-138.13-8.24-137.2 7.17.18 5.93-2 10.34 4.36 12 15.88.34 31.62-.51 47.18-1.16 32.66-2.01 64.84 1.68 97.23 1.86z" />
</svg>